<svg width="1200" height="720" viewBox="0 0 1200 720" fill="none" xmlns="http://www.w3.org/2000/svg">
  <rect width="1200" height="720" rx="36" fill="#05070A"/>
  <rect x="40" y="40" width="1120" height="640" rx="28" fill="#0B0F14" stroke="#1F2937"/>
  <rect x="72" y="72" width="236" height="576" rx="24" fill="#111827"/>
  <rect x="104" y="116" width="94" height="18" rx="9" fill="#F8FAFC"/>
  <rect x="104" y="180" width="168" height="14" rx="7" fill="#60A5FA"/>
  <rect x="104" y="216" width="140" height="14" rx="7" fill="#475569"/>
  <rect x="104" y="252" width="128" height="14" rx="7" fill="#475569"/>
  <rect x="340" y="92" width="248" height="144" rx="28" fill="#0F172A" stroke="#1E293B"/>
  <rect x="620" y="92" width="248" height="144" rx="28" fill="#0F172A" stroke="#1E293B"/>
  <rect x="900" y="92" width="220" height="144" rx="28" fill="#0F172A" stroke="#1E293B"/>
  <rect x="372" y="126" width="122" height="16" rx="8" fill="#94A3B8"/>
  <rect x="372" y="156" width="88" height="48" rx="24" fill="#F8FAFC"/>
  <rect x="652" y="126" width="132" height="16" rx="8" fill="#94A3B8"/>
  <rect x="652" y="156" width="118" height="48" rx="24" fill="#38BDF8"/>
  <rect x="932" y="126" width="126" height="16" rx="8" fill="#94A3B8"/>
  <circle cx="962" cy="184" r="10" fill="#22C55E"/>
  <circle cx="996" cy="184" r="10" fill="#F59E0B"/>
  <circle cx="1030" cy="184" r="10" fill="#EF4444"/>
  <rect x="340" y="268" width="780" height="176" rx="28" fill="#0F172A" stroke="#1E293B"/>
  <path d="M388 392L492 332L592 354L694 296L796 324L900 250L1008 284L1072 226" stroke="#38BDF8" stroke-width="10" stroke-linecap="round" stroke-linejoin="round"/>
  <rect x="340" y="476" width="374" height="140" rx="28" fill="#0F172A" stroke="#1E293B"/>
  <rect x="746" y="476" width="374" height="140" rx="28" fill="#0F172A" stroke="#1E293B"/>
  <rect x="372" y="510" width="154" height="16" rx="8" fill="#94A3B8"/>
  <rect x="372" y="548" width="310" height="12" rx="6" fill="#1E293B"/>
  <rect x="372" y="572" width="272" height="12" rx="6" fill="#1E293B"/>
  <rect x="778" y="510" width="146" height="16" rx="8" fill="#94A3B8"/>
  <rect x="778" y="544" width="40" height="40" rx="12" fill="#38BDF8"/>
  <rect x="832" y="532" width="40" height="52" rx="12" fill="#1D4ED8"/>
  <rect x="886" y="520" width="40" height="64" rx="12" fill="#60A5FA"/>
  <rect x="940" y="544" width="40" height="40" rx="12" fill="#38BDF8"/>
  <text x="96" y="620" fill="#64748B" font-family="Inter, Arial, sans-serif" font-size="28">dashboard</text>
</svg>
