<svg width="1200" height="720" viewBox="0 0 1200 720" fill="none" xmlns="http://www.w3.org/2000/svg">
  <rect width="1200" height="720" rx="36" fill="#030712"/>
  <rect x="48" y="48" width="1104" height="624" rx="32" fill="#09090B" stroke="#27272A"/>
  <rect x="92" y="92" width="1016" height="72" rx="24" fill="#0F172A" stroke="#27272A"/>
  <rect x="128" y="120" width="128" height="16" rx="8" fill="#F8FAFC"/>
  <rect x="856" y="112" width="116" height="32" rx="16" fill="#1D4ED8"/>
  <rect x="992" y="112" width="76" height="32" rx="16" fill="#18181B" stroke="#3F3F46"/>
  <rect x="128" y="232" width="448" height="52" rx="26" fill="#F8FAFC"/>
  <rect x="128" y="316" width="640" height="18" rx="9" fill="#3F3F46"/>
  <rect x="128" y="356" width="520" height="18" rx="9" fill="#27272A"/>
  <rect x="128" y="420" width="164" height="56" rx="28" fill="#2563EB"/>
  <rect x="324" y="420" width="164" height="56" rx="28" fill="#18181B" stroke="#3F3F46"/>
  <rect x="820" y="232" width="248" height="244" rx="28" fill="#111827" stroke="#27272A"/>
  <rect x="852" y="272" width="112" height="16" rx="8" fill="#E5E7EB"/>
  <rect x="852" y="316" width="176" height="12" rx="6" fill="#3F3F46"/>
  <rect x="852" y="348" width="148" height="12" rx="6" fill="#27272A"/>
  <text x="128" y="604" fill="#71717A" font-family="Inter, Arial, sans-serif" font-size="28">tweakcn-vercel</text>
</svg>
